<svg width="100" height="100" viewBox="0 0 100 100" fill="none" xmlns="http://www.w3.org/2000/svg">
<rect width="100" height="100" rx="16" fill="currentColor"/>
<path d="M49.5 27.5001C49.5 27.5001 46.1247 34.1167 44.5 42.5001C42.8751 50.8835 44.5 56.125 44.5 56.125" stroke="white" stroke-width="6" stroke-linecap="round" stroke-linejoin="round"/>
<path d="M64.4413 39.0903C64.8733 39.3772 65.557 39.5793 66.2268 39.7189C67.391 39.9615 68.4669 39.1613 68.4365 37.9724C68.3801 35.7553 67.5153 32.1285 63.1135 29.2055C58.9578 26.4458 54.8308 26.408 52.229 26.8047C50.745 27.0309 50.1541 28.6524 51.0058 29.8887C51.7659 30.9922 52.6514 32.1067 53.25 32.3195C54.5 32.7639 56.0043 31.5922 57.0996 32.3195C58.195 33.0469 57.8691 34.7259 58.9645 35.4533C60.0599 36.1807 61.481 35.229 62.5764 35.9564C63.6716 36.6839 63.3459 38.3629 64.4413 39.0903Z" fill="white" stroke="white" stroke-width="2" stroke-linecap="round" stroke-linejoin="round"/>
<path d="M47.0003 31.2498C48.0725 30.8924 48.736 29.7173 49.1075 28.7767C49.4146 27.9993 49.1403 27.1412 48.4208 26.7158C46.8011 25.7584 43.3444 24.4486 37.952 26.0146C32.6219 27.5624 31.2138 31.0843 30.8565 33.1583C30.6893 34.1288 31.35 35.0067 32.3288 35.1154C33.0299 35.1934 33.799 35.1588 34.2586 34.7687C35.2673 33.9127 35.5404 32.7907 36.6673 32.4887C37.7941 32.1868 38.7663 33.5609 39.8933 33.2589C41.0201 32.9571 41.1749 31.2809 42.3018 30.9789C43.4288 30.6769 45.1253 31.8748 47.0003 31.2498Z" fill="white" stroke="white" stroke-width="2" stroke-linecap="round" stroke-linejoin="round"/>
<path d="M55.75 17.5001C52.6244 18.7502 49.4991 25.0001 49.5001 27.5001L65.7511 20.0002C64.0252 17.0108 58.8756 16.2501 55.75 17.5001Z" fill="white" stroke="white" stroke-width="2" stroke-linecap="round" stroke-linejoin="round"/>
<path d="M47 16.2501C52 18.0271 51.2261 24.5108 49.5002 27.5001L34.5006 17.4022C35.7506 15.0001 42 14.4731 47 16.2501Z" fill="white" stroke="white" stroke-width="2" stroke-linecap="round" stroke-linejoin="round"/>
<path fill-rule="evenodd" clip-rule="evenodd" d="M48.8692 50C36.0076 50 24.1231 56.8616 17.6923 68L16.0837 70.7861C13.0045 76.1194 16.8535 82.7861 23.0119 82.7861H38.9614C40.2303 82.7861 41.131 81.5193 41.131 80.2505V80.2505V72.0512C41.131 67.6329 44.7127 64.0512 49.131 64.0512H50.3047C54.723 64.0512 58.3047 67.6329 58.3047 72.0512V80.2505V80.2505C58.3047 81.5193 59.2055 82.7861 60.4743 82.7861H76.4238C82.5822 82.7861 86.4312 76.1194 83.352 70.7861L81.7434 68C75.3126 56.8616 63.4281 50 50.5665 50H48.8692Z" fill="white"/>
</svg>
